<svg width="914" height="33" viewBox="0 0 914 33" fill="none" xmlns="http://www.w3.org/2000/svg">
<path d="M0.000143422 26.2331L5.55584 26.4615L5.80452 20.4113C5.87215 18.766 5.07109 17.2065 3.69565 16.3058L0.494348 14.2095L0.000143422 26.2331Z" fill="#00141B"/>
<path d="M22.1348 7.85461L16.5791 7.62626L15.9241 23.5618L21.3433 27.1105L22.1348 7.85461Z" fill="#0E186C"/>
<path d="M13.1383 15.1243L0.790711 6.99488L0.524252 13.4776L15.2966 23.1992L15.4437 19.6194C15.5177 17.8188 14.6423 16.1119 13.1383 15.1243Z" fill="#63866A"/>
<path d="M40.2737 22.6018H37.1956L32.2268 13.9612H32.1565C32.1773 14.3206 32.1956 14.6825 32.2112 15.0471C32.2268 15.4117 32.2424 15.7763 32.2581 16.1409C32.2737 16.5002 32.2893 16.8622 32.3049 17.2268V22.6018H30.1409V11.1799H33.1956L38.1565 19.7346H38.2112C38.2008 19.3805 38.1877 19.0289 38.1721 18.6799C38.1565 18.331 38.1409 17.982 38.1252 17.6331C38.1148 17.2841 38.1044 16.9351 38.094 16.5862V11.1799H40.2737V22.6018ZM46.5706 13.7034C47.3778 13.7034 48.0732 13.8596 48.6565 14.1721C49.2398 14.4794 49.6903 14.9273 50.0081 15.5159C50.3258 16.1044 50.4846 16.8232 50.4846 17.6721V18.8284H44.8518C44.8778 19.5002 45.0784 20.0289 45.4534 20.4143C45.8336 20.7945 46.3596 20.9846 47.0315 20.9846C47.5888 20.9846 48.0992 20.9273 48.5627 20.8127C49.0263 20.6982 49.5028 20.5263 49.9924 20.2971V22.1409C49.5601 22.3544 49.107 22.5107 48.6331 22.6096C48.1643 22.7086 47.594 22.7581 46.9221 22.7581C46.0471 22.7581 45.2711 22.5966 44.594 22.2737C43.9221 21.9508 43.3935 21.4586 43.0081 20.7971C42.6278 20.1357 42.4377 19.3023 42.4377 18.2971C42.4377 17.2763 42.6096 16.4273 42.9534 15.7502C43.3023 15.068 43.7867 14.5575 44.4065 14.219C45.0263 13.8752 45.7476 13.7034 46.5706 13.7034ZM46.5862 15.3987C46.1226 15.3987 45.7372 15.5471 45.4299 15.844C45.1278 16.1409 44.9534 16.607 44.9065 17.2424H48.2502C48.245 16.8883 48.1799 16.5732 48.0549 16.2971C47.9351 16.0211 47.7528 15.8023 47.5081 15.6409C47.2685 15.4794 46.9612 15.3987 46.5862 15.3987ZM54.2112 18.1409L51.3987 13.8674H54.1018L55.7971 16.6487L57.5081 13.8674H60.2112L57.3674 18.1409L60.344 22.6018H57.6331L55.7971 19.6096L53.9534 22.6018H51.2502L54.2112 18.1409ZM65.3518 20.8596C65.6122 20.8596 65.8648 20.8336 66.1096 20.7815C66.3596 20.7294 66.607 20.6643 66.8518 20.5862V22.3596C66.5966 22.4742 66.2789 22.568 65.8987 22.6409C65.5237 22.719 65.1122 22.7581 64.6643 22.7581C64.1435 22.7581 63.6747 22.6747 63.2581 22.5081C62.8466 22.3362 62.5211 22.0419 62.2815 21.6252C62.0471 21.2034 61.9299 20.6174 61.9299 19.8674V15.6565H60.7893V14.6487L62.1018 13.8518L62.7893 12.0081H64.3127V13.8674H66.7581V15.6565H64.3127V19.8674C64.3127 20.2008 64.4065 20.4508 64.594 20.6174C64.7867 20.7789 65.0393 20.8596 65.3518 20.8596ZM71.1956 22.6018H68.8127V11.1799H75.3596V13.1643H71.1956V16.1096H75.0706V18.0862H71.1956V22.6018ZM80.9846 13.6877C82.1565 13.6877 83.0549 13.943 83.6799 14.4534C84.3049 14.9638 84.6174 15.7398 84.6174 16.7815V22.6018H82.9534L82.4924 21.4143H82.4299C82.1799 21.7268 81.9247 21.982 81.6643 22.1799C81.4039 22.3778 81.1044 22.5237 80.7659 22.6174C80.4273 22.7112 80.0159 22.7581 79.5315 22.7581C79.0159 22.7581 78.5523 22.6591 78.1409 22.4612C77.7346 22.2633 77.4143 21.9612 77.1799 21.5549C76.9456 21.1435 76.8284 20.6226 76.8284 19.9924C76.8284 19.0653 77.1539 18.3831 77.8049 17.9456C78.456 17.5028 79.4325 17.2581 80.7346 17.2112L82.2502 17.1643V16.7815C82.2502 16.3232 82.1305 15.9872 81.8909 15.7737C81.6513 15.5601 81.318 15.4534 80.8909 15.4534C80.469 15.4534 80.0549 15.5133 79.6487 15.6331C79.2424 15.7528 78.8362 15.9039 78.4299 16.0862L77.6409 14.4768C78.1044 14.232 78.6226 14.0393 79.1956 13.8987C79.7737 13.7581 80.37 13.6877 80.9846 13.6877ZM82.2502 18.5549L81.3284 18.5862C80.5575 18.607 80.0211 18.745 79.719 19.0002C79.4221 19.2555 79.2737 19.5914 79.2737 20.0081C79.2737 20.3726 79.3805 20.6331 79.594 20.7893C79.8075 20.9403 80.0862 21.0159 80.4299 21.0159C80.9403 21.0159 81.37 20.8648 81.719 20.5627C82.0732 20.2607 82.2502 19.831 82.2502 19.2737V18.5549ZM93.1721 20.0081C93.1721 20.6018 93.0315 21.1044 92.7502 21.5159C92.4742 21.9221 92.0601 22.232 91.5081 22.4456C90.956 22.6539 90.2685 22.7581 89.4456 22.7581C88.8362 22.7581 88.3127 22.719 87.8752 22.6409C87.443 22.5627 87.0055 22.4325 86.5627 22.2502V20.2815C87.0367 20.495 87.5445 20.6721 88.0862 20.8127C88.6331 20.9482 89.1122 21.0159 89.5237 21.0159C89.9872 21.0159 90.318 20.9482 90.5159 20.8127C90.719 20.6721 90.8206 20.4898 90.8206 20.2659C90.8206 20.12 90.7789 19.9898 90.6956 19.8752C90.6174 19.7555 90.4456 19.6226 90.1799 19.4768C89.9143 19.3258 89.4976 19.1305 88.9299 18.8909C88.3831 18.6617 87.9325 18.4299 87.5784 18.1956C87.2294 17.9612 86.969 17.6851 86.7971 17.3674C86.6305 17.0445 86.5471 16.6357 86.5471 16.1409C86.5471 15.3336 86.8596 14.7268 87.4846 14.3206C88.1148 13.9091 88.956 13.7034 90.0081 13.7034C90.5497 13.7034 91.0653 13.7581 91.5549 13.8674C92.0497 13.9768 92.5575 14.1513 93.0784 14.3909L92.3596 16.1096C91.9273 15.9221 91.5185 15.7685 91.1331 15.6487C90.7528 15.5289 90.3648 15.469 89.969 15.469C89.62 15.469 89.357 15.5159 89.1799 15.6096C89.0028 15.7034 88.9143 15.8466 88.9143 16.0393C88.9143 16.1799 88.9586 16.3049 89.0471 16.4143C89.1409 16.5237 89.318 16.6461 89.5784 16.7815C89.844 16.9117 90.232 17.081 90.7424 17.2893C91.2372 17.4924 91.6669 17.706 92.0315 17.9299C92.3961 18.1487 92.6773 18.4221 92.8752 18.7502C93.0732 19.0732 93.1721 19.4924 93.1721 20.0081ZM97.4143 10.4456V12.9221C97.4143 13.3544 97.3987 13.7659 97.3674 14.1565C97.3414 14.5471 97.3206 14.8232 97.3049 14.9846H97.4299C97.6174 14.6825 97.8388 14.4377 98.094 14.2502C98.3544 14.0627 98.6409 13.9247 98.9534 13.8362C99.2659 13.7476 99.6018 13.7034 99.9612 13.7034C100.591 13.7034 101.141 13.8153 101.61 14.0393C102.078 14.2581 102.443 14.6044 102.703 15.0784C102.964 15.5471 103.094 16.1565 103.094 16.9065V22.6018H100.711V17.5002C100.711 16.8752 100.597 16.4039 100.367 16.0862C100.138 15.7685 99.7841 15.6096 99.3049 15.6096C98.8258 15.6096 98.4482 15.7216 98.1721 15.9456C97.8961 16.1643 97.7008 16.4898 97.5862 16.9221C97.4716 17.3492 97.4143 17.8726 97.4143 18.4924V22.6018H95.0315V10.4456H97.4143ZM107.93 13.8674V22.6018H105.547V13.8674H107.93ZM106.742 10.4456C107.097 10.4456 107.401 10.5289 107.656 10.6956C107.912 10.857 108.039 11.1617 108.039 11.6096C108.039 12.0523 107.912 12.3596 107.656 12.5315C107.401 12.6982 107.097 12.7815 106.742 12.7815C106.383 12.7815 106.076 12.6982 105.821 12.5315C105.571 12.3596 105.446 12.0523 105.446 11.6096C105.446 11.1617 105.571 10.857 105.821 10.6956C106.076 10.5289 106.383 10.4456 106.742 10.4456ZM118.375 18.219C118.375 18.9482 118.276 19.594 118.078 20.1565C117.886 20.719 117.602 21.1956 117.227 21.5862C116.857 21.9716 116.409 22.2633 115.883 22.4612C115.362 22.6591 114.774 22.7581 114.117 22.7581C113.503 22.7581 112.938 22.6591 112.422 22.4612C111.912 22.2633 111.466 21.9716 111.086 21.5862C110.711 21.1956 110.42 20.719 110.211 20.1565C110.008 19.594 109.906 18.9482 109.906 18.219C109.906 17.2502 110.078 16.4299 110.422 15.7581C110.766 15.0862 111.255 14.5758 111.891 14.2268C112.526 13.8778 113.284 13.7034 114.164 13.7034C114.982 13.7034 115.706 13.8778 116.336 14.2268C116.972 14.5758 117.469 15.0862 117.828 15.7581C118.193 16.4299 118.375 17.2502 118.375 18.219ZM112.336 18.219C112.336 18.7919 112.399 19.2737 112.524 19.6643C112.649 20.0549 112.844 20.3492 113.11 20.5471C113.375 20.745 113.722 20.844 114.149 20.844C114.571 20.844 114.912 20.745 115.172 20.5471C115.438 20.3492 115.63 20.0549 115.75 19.6643C115.875 19.2737 115.938 18.7919 115.938 18.219C115.938 17.6409 115.875 17.1617 115.75 16.7815C115.63 16.3961 115.438 16.107 115.172 15.9143C114.906 15.7216 114.56 15.6252 114.133 15.6252C113.503 15.6252 113.045 15.8414 112.758 16.2737C112.477 16.706 112.336 17.3544 112.336 18.219ZM125.305 13.7034C126.237 13.7034 126.987 13.9586 127.555 14.469C128.123 14.9742 128.406 15.7867 128.406 16.9065V22.6018H126.024V17.5002C126.024 16.8752 125.909 16.4039 125.68 16.0862C125.456 15.7685 125.102 15.6096 124.617 15.6096C123.888 15.6096 123.391 15.857 123.125 16.3518C122.86 16.8466 122.727 17.5601 122.727 18.4924V22.6018H120.344V13.8674H122.164L122.485 14.9846H122.617C122.805 14.6825 123.037 14.4377 123.313 14.2502C123.594 14.0627 123.904 13.9247 124.242 13.8362C124.586 13.7476 124.94 13.7034 125.305 13.7034Z" fill="#63866A"/>
<path d="M200.04 16.6015C200.04 13.7453 197.716 11.4214 194.86 11.4214C192.003 11.4214 189.679 13.7453 189.679 16.6015C189.679 19.4578 192.003 21.7817 194.86 21.7817C197.716 21.7817 200.04 19.4578 200.04 16.6015ZM194.86 17.5157C194.356 17.5157 193.946 17.1056 193.946 16.6015C193.946 16.0975 194.356 15.6874 194.86 15.6874C195.364 15.6874 195.774 16.0975 195.774 16.6015C195.774 17.1056 195.364 17.5157 194.86 17.5157Z" fill="#3734A9"/>
<path d="M192.91 20.0489C193.486 20.3758 194.151 20.5628 194.86 20.5628C195.568 20.5628 196.233 20.3758 196.809 20.0489M196.315 18.1595C196.883 18.4074 197.384 18.7963 197.765 19.2919C198.42 18.585 198.821 17.6393 198.821 16.6015C198.821 14.4172 197.044 12.6402 194.86 12.6402C192.675 12.6402 190.898 14.4174 190.898 16.6015C190.898 17.6393 191.3 18.5847 191.955 19.2917C192.335 18.7964 192.837 18.4072 193.404 18.1595C192.988 17.7699 192.727 17.2157 192.727 16.6015C192.727 15.4254 193.683 14.4686 194.86 14.4686M200.04 16.6015C200.04 13.7453 197.716 11.4214 194.86 11.4214C192.003 11.4214 189.679 13.7453 189.679 16.6015C189.679 19.4578 192.003 21.7817 194.86 21.7817C197.716 21.7817 200.04 19.4578 200.04 16.6015ZM194.86 17.5157C194.356 17.5157 193.946 17.1056 193.946 16.6015C193.946 16.0975 194.356 15.6874 194.86 15.6874C195.364 15.6874 195.774 16.0975 195.774 16.6015C195.774 17.1056 195.364 17.5157 194.86 17.5157Z" stroke="#3734A9" stroke-width="1.5"/>
<path d="M203.392 16.6015C203.392 11.8969 199.564 8.06982 194.86 8.06982C190.156 8.06982 186.328 11.8972 186.328 16.6015C186.328 21.3058 190.156 25.1332 194.86 25.1332C199.564 25.1332 203.392 21.3058 203.392 16.6015ZM187.546 16.6015C187.546 12.5691 190.827 9.2884 194.86 9.2884C198.892 9.2884 202.173 12.5691 202.173 16.6015C202.173 20.634 198.892 23.9147 194.86 23.9147C190.827 23.9147 187.546 20.634 187.546 16.6015Z" fill="#3734A9" stroke="#3734A9" stroke-width="1.5"/>
<path d="M182.891 10.3952C182.987 10.4507 183.092 10.477 183.196 10.477C183.406 10.477 183.611 10.3678 183.724 10.1721C185.661 6.81696 189.054 4.49821 192.868 3.89756C193.177 4.69724 193.953 5.26596 194.86 5.26596C196.036 5.26596 196.993 4.30916 196.993 3.13298C196.993 1.95681 196.036 1 194.86 1C193.839 1 192.984 1.72023 192.775 2.67876C190.762 2.9813 188.812 3.72678 187.112 4.84724C185.294 6.04587 183.757 7.67626 182.668 9.56224C182.5 9.8539 182.6 10.2265 182.891 10.3947L182.891 10.3952ZM194.86 2.21896C195.364 2.21896 195.774 2.62902 195.774 3.13309C195.774 3.63716 195.364 4.04722 194.86 4.04722C194.356 4.04722 193.946 3.63716 193.946 3.13309C193.946 2.62902 194.356 2.21896 194.86 2.21896Z" fill="#3734A9" stroke="#3734A9" stroke-width="1.5"/>
<path d="M188.43 27.7375C185.075 25.8004 182.756 22.407 182.156 18.5929C182.956 18.2849 183.525 17.5083 183.525 16.6016C183.525 15.4254 182.568 14.4686 181.392 14.4686C180.216 14.4686 179.259 15.4254 179.259 16.6016C179.259 17.6219 179.979 18.4773 180.938 18.6858C181.24 20.6996 181.986 22.6495 183.106 24.3491C184.305 26.1674 185.935 27.704 187.821 28.7929C187.917 28.8484 188.022 28.8748 188.125 28.8748C188.336 28.8748 188.541 28.7655 188.653 28.5699C188.822 28.2784 188.722 27.9058 188.43 27.7374L188.43 27.7375ZM180.478 16.6015C180.478 16.0974 180.888 15.6874 181.392 15.6874C181.896 15.6874 182.306 16.0974 182.306 16.6015C182.306 17.1056 181.896 17.5156 181.392 17.5156C180.888 17.5156 180.478 17.1056 180.478 16.6015Z" fill="#3734A9" stroke="#3734A9" stroke-width="1.5"/>
<path d="M206.828 22.8083C206.537 22.64 206.164 22.7399 205.996 23.0314C204.059 26.3867 200.665 28.7058 196.851 29.3059C196.543 28.5064 195.767 27.9375 194.86 27.9375C193.684 27.9375 192.727 28.8943 192.727 30.0705C192.727 31.2466 193.684 32.2035 194.86 32.2035C195.88 32.2035 196.736 31.4832 196.944 30.5247C198.958 30.2222 200.908 29.4767 202.608 28.3562C204.426 27.1576 205.962 25.5272 207.051 23.6412C207.22 23.3498 207.12 22.9769 206.828 22.8087L206.828 22.8083ZM194.86 30.9845C194.356 30.9845 193.946 30.5744 193.946 30.0704C193.946 29.5663 194.356 29.1562 194.86 29.1562C195.364 29.1562 195.774 29.5663 195.774 30.0704C195.774 30.5744 195.364 30.9845 194.86 30.9845Z" fill="#3734A9" stroke="#3734A9" stroke-width="1.5"/>
<path d="M208.782 14.5172C208.48 12.5034 207.734 10.5535 206.614 8.8539C205.415 7.03562 203.785 5.499 201.899 4.41008C201.607 4.24184 201.235 4.34174 201.066 4.63318C200.898 4.92461 200.998 5.29724 201.289 5.46567C204.645 7.4028 206.964 10.7962 207.564 14.6103C206.764 14.9183 206.196 15.6949 206.196 16.6016C206.196 17.7778 207.152 18.7346 208.329 18.7346C209.505 18.7346 210.461 17.7778 210.461 16.6016C210.461 15.5813 209.741 14.7259 208.783 14.5171L208.782 14.5172ZM208.328 17.5155C207.824 17.5155 207.414 17.1055 207.414 16.6014C207.414 16.0973 207.824 15.6873 208.328 15.6873C208.832 15.6873 209.242 16.0973 209.242 16.6014C209.242 17.1055 208.832 17.5155 208.328 17.5155Z" fill="#3734A9" stroke="#3734A9" stroke-width="1.5"/>
<path d="M229.538 21.4673H227.155V10.0454H233.702V12.0298H229.538V14.9751H233.413V16.9517H229.538V21.4673ZM239.327 12.5532C240.499 12.5532 241.397 12.8084 242.022 13.3188C242.647 13.8293 242.96 14.6053 242.96 15.647V21.4673H241.296L240.835 20.2798H240.772C240.522 20.5923 240.267 20.8475 240.007 21.0454C239.746 21.2433 239.447 21.3892 239.108 21.4829C238.77 21.5767 238.358 21.6235 237.874 21.6235C237.358 21.6235 236.895 21.5246 236.483 21.3267C236.077 21.1287 235.757 20.8267 235.522 20.4204C235.288 20.009 235.171 19.4881 235.171 18.8579C235.171 17.9308 235.496 17.2485 236.147 16.811C236.799 16.3683 237.775 16.1235 239.077 16.0767L240.593 16.0298V15.647C240.593 15.1886 240.473 14.8527 240.233 14.6392C239.994 14.4256 239.66 14.3188 239.233 14.3188C238.812 14.3188 238.397 14.3787 237.991 14.4985C237.585 14.6183 237.179 14.7694 236.772 14.9517L235.983 13.3423C236.447 13.0975 236.965 12.9048 237.538 12.7642C238.116 12.6235 238.713 12.5532 239.327 12.5532ZM240.593 17.4204L239.671 17.4517C238.9 17.4725 238.364 17.6105 238.062 17.8657C237.765 18.1209 237.616 18.4569 237.616 18.8735C237.616 19.2381 237.723 19.4985 237.937 19.6548C238.15 19.8058 238.429 19.8813 238.772 19.8813C239.283 19.8813 239.713 19.7303 240.062 19.4282C240.416 19.1261 240.593 18.6965 240.593 18.1392V17.4204ZM251.515 18.8735C251.515 19.4673 251.374 19.9699 251.093 20.3813C250.817 20.7876 250.403 21.0975 249.851 21.311C249.299 21.5194 248.611 21.6235 247.788 21.6235C247.179 21.6235 246.655 21.5845 246.218 21.5063C245.785 21.4282 245.348 21.298 244.905 21.1157V19.147C245.379 19.3605 245.887 19.5376 246.429 19.6782C246.976 19.8136 247.455 19.8813 247.866 19.8813C248.33 19.8813 248.66 19.8136 248.858 19.6782C249.062 19.5376 249.163 19.3553 249.163 19.1313C249.163 18.9855 249.121 18.8553 249.038 18.7407C248.96 18.6209 248.788 18.4881 248.522 18.3423C248.257 18.1912 247.84 17.9959 247.272 17.7563C246.726 17.5272 246.275 17.2954 245.921 17.061C245.572 16.8267 245.312 16.5506 245.14 16.2329C244.973 15.91 244.89 15.5011 244.89 15.0063C244.89 14.1991 245.202 13.5923 245.827 13.186C246.457 12.7746 247.299 12.5688 248.351 12.5688C248.892 12.5688 249.408 12.6235 249.897 12.7329C250.392 12.8423 250.9 13.0168 251.421 13.2563L250.702 14.9751C250.27 14.7876 249.861 14.634 249.476 14.5142C249.095 14.3944 248.707 14.3345 248.312 14.3345C247.963 14.3345 247.7 14.3813 247.522 14.4751C247.345 14.5688 247.257 14.7121 247.257 14.9048C247.257 15.0454 247.301 15.1704 247.39 15.2798C247.483 15.3892 247.66 15.5116 247.921 15.647C248.187 15.7772 248.575 15.9465 249.085 16.1548C249.58 16.3579 250.009 16.5715 250.374 16.7954C250.739 17.0142 251.02 17.2876 251.218 17.6157C251.416 17.9386 251.515 18.3579 251.515 18.8735ZM255.757 9.31104V11.7876C255.757 12.2199 255.741 12.6313 255.71 13.022C255.684 13.4126 255.663 13.6886 255.647 13.8501H255.772C255.96 13.548 256.181 13.3032 256.437 13.1157C256.697 12.9282 256.983 12.7902 257.296 12.7017C257.608 12.6131 257.944 12.5688 258.304 12.5688C258.934 12.5688 259.483 12.6808 259.952 12.9048C260.421 13.1235 260.785 13.4699 261.046 13.9438C261.306 14.4126 261.437 15.022 261.437 15.772V21.4673H259.054V16.3657C259.054 15.7407 258.939 15.2694 258.71 14.9517C258.481 14.634 258.127 14.4751 257.647 14.4751C257.168 14.4751 256.791 14.5871 256.515 14.811C256.239 15.0298 256.043 15.3553 255.929 15.7876C255.814 16.2147 255.757 16.7381 255.757 17.3579V21.4673H253.374V9.31104H255.757ZM266.272 12.7329V21.4673H263.89V12.7329H266.272ZM265.085 9.31104C265.439 9.31104 265.744 9.39437 265.999 9.56104C266.254 9.72249 266.382 10.0272 266.382 10.4751C266.382 10.9178 266.254 11.2251 265.999 11.397C265.744 11.5636 265.439 11.647 265.085 11.647C264.726 11.647 264.418 11.5636 264.163 11.397C263.913 11.2251 263.788 10.9178 263.788 10.4751C263.788 10.0272 263.913 9.72249 264.163 9.56104C264.418 9.39437 264.726 9.31104 265.085 9.31104ZM276.718 17.0845C276.718 17.8136 276.619 18.4595 276.421 19.022C276.228 19.5845 275.944 20.061 275.569 20.4517C275.2 20.8371 274.752 21.1287 274.226 21.3267C273.705 21.5246 273.116 21.6235 272.46 21.6235C271.845 21.6235 271.28 21.5246 270.765 21.3267C270.254 21.1287 269.809 20.8371 269.429 20.4517C269.054 20.061 268.762 19.5845 268.554 19.022C268.351 18.4595 268.249 17.8136 268.249 17.0845C268.249 16.1157 268.421 15.2954 268.765 14.6235C269.108 13.9517 269.598 13.4412 270.233 13.0923C270.869 12.7433 271.627 12.5688 272.507 12.5688C273.325 12.5688 274.049 12.7433 274.679 13.0923C275.314 13.4412 275.812 13.9517 276.171 14.6235C276.535 15.2954 276.718 16.1157 276.718 17.0845ZM270.679 17.0845C270.679 17.6574 270.741 18.1392 270.866 18.5298C270.991 18.9204 271.187 19.2147 271.452 19.4126C271.718 19.6105 272.064 19.7095 272.491 19.7095C272.913 19.7095 273.254 19.6105 273.515 19.4126C273.78 19.2147 273.973 18.9204 274.093 18.5298C274.218 18.1392 274.28 17.6574 274.28 17.0845C274.28 16.5063 274.218 16.0272 274.093 15.647C273.973 15.2616 273.78 14.9725 273.515 14.7798C273.249 14.5871 272.903 14.4907 272.476 14.4907C271.845 14.4907 271.387 14.7069 271.101 15.1392C270.819 15.5715 270.679 16.2199 270.679 17.0845ZM283.647 12.5688C284.58 12.5688 285.33 12.8241 285.897 13.3345C286.465 13.8397 286.749 14.6522 286.749 15.772V21.4673H284.366V16.3657C284.366 15.7407 284.252 15.2694 284.022 14.9517C283.799 14.634 283.444 14.4751 282.96 14.4751C282.231 14.4751 281.733 14.7225 281.468 15.2173C281.202 15.7121 281.069 16.4256 281.069 17.3579V21.4673H278.687V12.7329H280.507L280.827 13.8501H280.96C281.147 13.548 281.379 13.3032 281.655 13.1157C281.937 12.9282 282.246 12.7902 282.585 12.7017C282.929 12.6131 283.283 12.5688 283.647 12.5688ZM291.772 21.4673H289.39V10.0454H295.937V12.0298H291.772V14.9751H295.647V16.9517H291.772V21.4673ZM305.921 17.0845C305.921 17.8136 305.822 18.4595 305.624 19.022C305.431 19.5845 305.147 20.061 304.772 20.4517C304.403 20.8371 303.955 21.1287 303.429 21.3267C302.908 21.5246 302.319 21.6235 301.663 21.6235C301.049 21.6235 300.483 21.5246 299.968 21.3267C299.457 21.1287 299.012 20.8371 298.632 20.4517C298.257 20.061 297.965 19.5845 297.757 19.022C297.554 18.4595 297.452 17.8136 297.452 17.0845C297.452 16.1157 297.624 15.2954 297.968 14.6235C298.312 13.9517 298.801 13.4412 299.437 13.0923C300.072 12.7433 300.83 12.5688 301.71 12.5688C302.528 12.5688 303.252 12.7433 303.882 13.0923C304.517 13.4412 305.015 13.9517 305.374 14.6235C305.739 15.2954 305.921 16.1157 305.921 17.0845ZM299.882 17.0845C299.882 17.6574 299.944 18.1392 300.069 18.5298C300.194 18.9204 300.39 19.2147 300.655 19.4126C300.921 19.6105 301.267 19.7095 301.694 19.7095C302.116 19.7095 302.457 19.6105 302.718 19.4126C302.983 19.2147 303.176 18.9204 303.296 18.5298C303.421 18.1392 303.483 17.6574 303.483 17.0845C303.483 16.5063 303.421 16.0272 303.296 15.647C303.176 15.2616 302.983 14.9725 302.718 14.7798C302.452 14.5871 302.106 14.4907 301.679 14.4907C301.049 14.4907 300.59 14.7069 300.304 15.1392C300.022 15.5715 299.882 16.2199 299.882 17.0845ZM312.765 12.5688C312.884 12.5688 313.022 12.5767 313.179 12.5923C313.34 12.6027 313.47 12.6183 313.569 12.6392L313.39 14.8735C313.312 14.8475 313.2 14.8293 313.054 14.8188C312.913 14.8032 312.791 14.7954 312.687 14.7954C312.379 14.7954 312.08 14.8345 311.788 14.9126C311.502 14.9907 311.244 15.1183 311.015 15.2954C310.785 15.4673 310.603 15.6965 310.468 15.9829C310.338 16.2642 310.272 16.6105 310.272 17.022V21.4673H307.89V12.7329H309.694L310.046 14.2017H310.163C310.335 13.9048 310.549 13.634 310.804 13.3892C311.064 13.1392 311.358 12.9412 311.687 12.7954C312.02 12.6444 312.379 12.5688 312.765 12.5688ZM322.335 21.4673L321.507 18.7485H317.343L316.515 21.4673H313.905L317.937 9.99854H320.897L324.944 21.4673H322.335ZM320.929 16.7173L320.101 14.061C320.049 13.884 319.978 13.6574 319.89 13.3813C319.806 13.1001 319.72 12.8162 319.632 12.5298C319.549 12.2381 319.481 11.9855 319.429 11.772C319.377 11.9855 319.304 12.2511 319.21 12.5688C319.121 12.8813 319.035 13.1782 318.952 13.4595C318.869 13.7407 318.809 13.9412 318.772 14.061L317.952 16.7173H320.929ZM328.585 21.4673H326.202V9.31104H328.585V21.4673ZM333.476 21.4673H331.093V9.31104H333.476V21.4673Z" fill="#3734A9"/>
<path d="M389.002 6.39697L389.108 11.9563L395.162 11.8407C396.808 11.8092 398.317 10.9158 399.133 9.48866L401.033 6.16706L389.002 6.39697Z" fill="#710051"/>
<path d="M408.678 27.3861L408.572 21.8267L392.626 22.1314L389.41 27.7543L408.678 27.3861Z" fill="#6C0E63"/>
<path d="M400.881 18.8433L408.252 6.0291L401.765 6.15306L392.95 21.4834L396.532 21.4149C398.334 21.3805 399.985 20.404 400.881 18.8433Z" fill="#B71DBA"/>
<path d="M428.281 16.7228C428.281 17.5717 428.179 18.3504 427.976 19.0587C427.778 19.7618 427.471 20.3712 427.054 20.8868C426.637 21.4025 426.109 21.8061 425.468 22.0978L428.218 25.1681H425.117L423.023 22.6056C422.986 22.6056 422.955 22.6056 422.929 22.6056C422.903 22.6056 422.874 22.6056 422.843 22.6056C421.911 22.6056 421.104 22.4676 420.421 22.1915C419.739 21.9103 419.174 21.5092 418.726 20.9884C418.283 20.4676 417.953 19.8452 417.734 19.1212C417.515 18.3973 417.406 17.5926 417.406 16.7072C417.406 15.5249 417.598 14.4962 417.984 13.6212C418.374 12.741 418.973 12.0587 419.781 11.5743C420.588 11.09 421.614 10.8478 422.859 10.8478C424.098 10.8478 425.117 11.09 425.913 11.5743C426.716 12.0587 427.309 12.741 427.695 13.6212C428.085 14.5014 428.281 15.5353 428.281 16.7228ZM419.945 16.7228C419.945 17.5197 420.044 18.2072 420.242 18.7853C420.445 19.3582 420.76 19.8009 421.187 20.1134C421.614 20.4207 422.166 20.5743 422.843 20.5743C423.531 20.5743 424.088 20.4207 424.515 20.1134C424.942 19.8009 425.252 19.3582 425.445 18.7853C425.643 18.2072 425.742 17.5197 425.742 16.7228C425.742 15.5249 425.518 14.5822 425.07 13.8947C424.622 13.2072 423.885 12.8634 422.859 12.8634C422.176 12.8634 421.619 13.0197 421.187 13.3322C420.76 13.6394 420.445 14.0822 420.242 14.6603C420.044 15.2332 419.945 15.9207 419.945 16.7228ZM438.476 13.715V22.4493H436.648L436.328 21.3322H436.203C436.015 21.629 435.781 21.8712 435.499 22.0587C435.218 22.2462 434.908 22.3842 434.57 22.4728C434.231 22.5613 433.88 22.6056 433.515 22.6056C432.89 22.6056 432.346 22.4962 431.882 22.2775C431.419 22.0535 431.057 21.7072 430.796 21.2384C430.541 20.7697 430.413 20.1603 430.413 19.4103V13.715H432.796V18.8165C432.796 19.4415 432.908 19.9129 433.132 20.2306C433.356 20.5483 433.713 20.7072 434.203 20.7072C434.687 20.7072 435.067 20.5978 435.343 20.379C435.619 20.1551 435.812 19.8295 435.921 19.4025C436.036 18.9702 436.093 18.4441 436.093 17.8243V13.715H438.476ZM444.578 13.5509C445.385 13.5509 446.08 13.7072 446.663 14.0197C447.247 14.3269 447.697 14.7749 448.015 15.3634C448.333 15.9519 448.492 16.6707 448.492 17.5197V18.6759H442.859C442.885 19.3478 443.085 19.8764 443.46 20.2618C443.841 20.642 444.367 20.8322 445.038 20.8322C445.596 20.8322 446.106 20.7749 446.57 20.6603C447.033 20.5457 447.51 20.3738 447.999 20.1447V21.9884C447.567 22.2019 447.114 22.3582 446.64 22.4572C446.171 22.5561 445.601 22.6056 444.929 22.6056C444.054 22.6056 443.278 22.4441 442.601 22.1212C441.929 21.7983 441.4 21.3061 441.015 20.6447C440.635 19.9832 440.445 19.1499 440.445 18.1447C440.445 17.1238 440.617 16.2749 440.96 15.5978C441.309 14.9155 441.794 14.4051 442.413 14.0665C443.033 13.7228 443.755 13.5509 444.578 13.5509ZM444.593 15.2462C444.13 15.2462 443.744 15.3947 443.437 15.6915C443.135 15.9884 442.96 16.4545 442.913 17.09H446.257C446.252 16.7358 446.187 16.4207 446.062 16.1447C445.942 15.8686 445.76 15.6499 445.515 15.4884C445.275 15.3269 444.968 15.2462 444.593 15.2462ZM454.031 13.5509C454.838 13.5509 455.533 13.7072 456.117 14.0197C456.7 14.3269 457.15 14.7749 457.468 15.3634C457.786 15.9519 457.945 16.6707 457.945 17.5197V18.6759H452.312C452.338 19.3478 452.538 19.8764 452.913 20.2618C453.294 20.642 453.82 20.8322 454.492 20.8322C455.049 20.8322 455.559 20.7749 456.023 20.6603C456.486 20.5457 456.963 20.3738 457.453 20.1447V21.9884C457.02 22.2019 456.567 22.3582 456.093 22.4572C455.624 22.5561 455.054 22.6056 454.382 22.6056C453.507 22.6056 452.731 22.4441 452.054 22.1212C451.382 21.7983 450.854 21.3061 450.468 20.6447C450.088 19.9832 449.898 19.1499 449.898 18.1447C449.898 17.1238 450.07 16.2749 450.413 15.5978C450.762 14.9155 451.247 14.4051 451.867 14.0665C452.486 13.7228 453.208 13.5509 454.031 13.5509ZM454.046 15.2462C453.583 15.2462 453.197 15.3947 452.89 15.6915C452.588 15.9884 452.413 16.4545 452.367 17.09H455.71C455.705 16.7358 455.64 16.4207 455.515 16.1447C455.395 15.8686 455.213 15.6499 454.968 15.4884C454.729 15.3269 454.421 15.2462 454.046 15.2462ZM464.843 13.5509C465.775 13.5509 466.525 13.8061 467.093 14.3165C467.661 14.8217 467.945 15.6342 467.945 16.754V22.4493H465.562V17.3478C465.562 16.7228 465.447 16.2514 465.218 15.9337C464.994 15.616 464.64 15.4572 464.156 15.4572C463.426 15.4572 462.929 15.7045 462.663 16.1993C462.398 16.6941 462.265 17.4077 462.265 18.34V22.4493H459.882V13.715H461.703L462.023 14.8322H462.156C462.343 14.5301 462.575 14.2853 462.851 14.0978C463.132 13.9103 463.442 13.7723 463.781 13.6837C464.124 13.5952 464.479 13.5509 464.843 13.5509ZM478.101 22.6056C477.236 22.6056 476.499 22.4493 475.89 22.1368C475.281 21.8191 474.817 21.3295 474.499 20.6681C474.182 20.0066 474.023 19.1603 474.023 18.129C474.023 17.0613 474.203 16.1915 474.562 15.5197C474.926 14.8426 475.429 14.3452 476.07 14.0275C476.716 13.7098 477.463 13.5509 478.312 13.5509C478.916 13.5509 479.437 13.6108 479.874 13.7306C480.317 13.8452 480.703 13.9832 481.031 14.1447L480.328 15.9884C479.953 15.8374 479.604 15.715 479.281 15.6212C478.958 15.5223 478.635 15.4728 478.312 15.4728C477.895 15.4728 477.549 15.5717 477.273 15.7697C476.997 15.9624 476.791 16.254 476.656 16.6447C476.52 17.0353 476.453 17.5249 476.453 18.1134C476.453 18.6915 476.525 19.1707 476.671 19.5509C476.817 19.9311 477.028 20.215 477.304 20.4025C477.58 20.5848 477.916 20.6759 478.312 20.6759C478.807 20.6759 479.247 20.6108 479.632 20.4806C480.018 20.3452 480.393 20.1577 480.757 19.9181V21.9572C480.393 22.1863 480.01 22.3504 479.609 22.4493C479.213 22.5535 478.71 22.6056 478.101 22.6056ZM485.171 22.4493H482.788V10.2931H485.171V22.4493ZM495.617 18.0665C495.617 18.7957 495.518 19.4415 495.32 20.004C495.127 20.5665 494.843 21.0431 494.468 21.4337C494.098 21.8191 493.65 22.1108 493.124 22.3087C492.604 22.5066 492.015 22.6056 491.359 22.6056C490.744 22.6056 490.179 22.5066 489.663 22.3087C489.153 22.1108 488.708 21.8191 488.328 21.4337C487.953 21.0431 487.661 20.5665 487.453 20.004C487.249 19.4415 487.148 18.7957 487.148 18.0665C487.148 17.0978 487.32 16.2775 487.663 15.6056C488.007 14.9337 488.497 14.4233 489.132 14.0743C489.768 13.7254 490.525 13.5509 491.406 13.5509C492.223 13.5509 492.947 13.7254 493.578 14.0743C494.213 14.4233 494.71 14.9337 495.07 15.6056C495.434 16.2775 495.617 17.0978 495.617 18.0665ZM489.578 18.0665C489.578 18.6394 489.64 19.1212 489.765 19.5118C489.89 19.9025 490.085 20.1967 490.351 20.3947C490.617 20.5926 490.963 20.6915 491.39 20.6915C491.812 20.6915 492.153 20.5926 492.413 20.3947C492.679 20.1967 492.872 19.9025 492.992 19.5118C493.117 19.1212 493.179 18.6394 493.179 18.0665C493.179 17.4884 493.117 17.0092 492.992 16.629C492.872 16.2436 492.679 15.9545 492.413 15.7618C492.148 15.5691 491.801 15.4728 491.374 15.4728C490.744 15.4728 490.286 15.6889 489.999 16.1212C489.718 16.5535 489.578 17.2019 489.578 18.0665ZM503.663 22.4493H496.765V21.0431L500.812 15.5353H497.007V13.715H503.523V15.2618L499.585 20.629H503.663V22.4493ZM508.999 13.5509C509.807 13.5509 510.502 13.7072 511.085 14.0197C511.669 14.3269 512.119 14.7749 512.437 15.3634C512.755 15.9519 512.913 16.6707 512.913 17.5197V18.6759H507.281C507.307 19.3478 507.507 19.8764 507.882 20.2618C508.262 20.642 508.788 20.8322 509.46 20.8322C510.018 20.8322 510.528 20.7749 510.992 20.6603C511.455 20.5457 511.932 20.3738 512.421 20.1447V21.9884C511.989 22.2019 511.536 22.3582 511.062 22.4572C510.593 22.5561 510.023 22.6056 509.351 22.6056C508.476 22.6056 507.7 22.4441 507.023 22.1212C506.351 21.7983 505.822 21.3061 505.437 20.6447C505.057 19.9832 504.867 19.1499 504.867 18.1447C504.867 17.1238 505.038 16.2749 505.382 15.5978C505.731 14.9155 506.216 14.4051 506.835 14.0665C507.455 13.7228 508.176 13.5509 508.999 13.5509ZM509.015 15.2462C508.551 15.2462 508.166 15.3947 507.859 15.6915C507.557 15.9884 507.382 16.4545 507.335 17.09H510.679C510.674 16.7358 510.609 16.4207 510.484 16.1447C510.364 15.8686 510.182 15.6499 509.937 15.4884C509.697 15.3269 509.39 15.2462 509.015 15.2462ZM518.531 20.7072C518.791 20.7072 519.044 20.6811 519.288 20.629C519.538 20.5769 519.786 20.5118 520.031 20.4337V22.2072C519.775 22.3217 519.458 22.4155 519.078 22.4884C518.703 22.5665 518.291 22.6056 517.843 22.6056C517.322 22.6056 516.854 22.5223 516.437 22.3556C516.025 22.1837 515.7 21.8894 515.46 21.4728C515.226 21.0509 515.109 20.465 515.109 19.715V15.504H513.968V14.4962L515.281 13.6993L515.968 11.8556H517.492V13.715H519.937V15.504H517.492V19.715C517.492 20.0483 517.585 20.2983 517.773 20.465C517.966 20.6264 518.218 20.7072 518.531 20.7072Z" fill="#B71DBA"/>
<path d="M591.812 16.6015C591.812 13.7453 589.489 11.4214 586.632 11.4214C583.776 11.4214 581.452 13.7453 581.452 16.6015C581.452 19.4578 583.776 21.7817 586.632 21.7817C589.489 21.7817 591.812 19.4578 591.812 16.6015ZM586.632 17.5157C586.128 17.5157 585.718 17.1056 585.718 16.6015C585.718 16.0975 586.128 15.6874 586.632 15.6874C587.136 15.6874 587.546 16.0975 587.546 16.6015C587.546 17.1056 587.136 17.5157 586.632 17.5157Z" fill="#2C7B98"/>
<path d="M584.683 20.0489C585.259 20.3758 585.924 20.5628 586.632 20.5628C587.341 20.5628 588.006 20.3758 588.582 20.0489M588.088 18.1595C588.655 18.4074 589.157 18.7963 589.537 19.2919C590.193 18.585 590.594 17.6393 590.594 16.6015C590.594 14.4172 588.816 12.6402 586.632 12.6402C584.448 12.6402 582.671 14.4174 582.671 16.6015C582.671 17.6393 583.072 18.5847 583.728 19.2917C584.108 18.7964 584.61 18.4072 585.177 18.1595C584.76 17.7699 584.499 17.2157 584.499 16.6015C584.499 15.4254 585.456 14.4686 586.632 14.4686M591.812 16.6015C591.812 13.7453 589.489 11.4214 586.632 11.4214C583.776 11.4214 581.452 13.7453 581.452 16.6015C581.452 19.4578 583.776 21.7817 586.632 21.7817C589.489 21.7817 591.812 19.4578 591.812 16.6015ZM586.632 17.5157C586.128 17.5157 585.718 17.1056 585.718 16.6015C585.718 16.0975 586.128 15.6874 586.632 15.6874C587.136 15.6874 587.546 16.0975 587.546 16.6015C587.546 17.1056 587.136 17.5157 586.632 17.5157Z" stroke="#2C7B98" stroke-width="1.5"/>
<path d="M595.164 16.6015C595.164 11.8969 591.337 8.06982 586.633 8.06982C581.928 8.06982 578.101 11.8972 578.101 16.6015C578.101 21.3058 581.928 25.1332 586.633 25.1332C591.337 25.1332 595.164 21.3058 595.164 16.6015ZM579.319 16.6015C579.319 12.5691 582.6 9.2884 586.632 9.2884C590.664 9.2884 593.945 12.5691 593.945 16.6015C593.945 20.634 590.664 23.9147 586.632 23.9147C582.6 23.9147 579.319 20.634 579.319 16.6015Z" fill="#2C7B98" stroke="#2C7B98" stroke-width="1.5"/>
<path d="M574.664 10.3952C574.76 10.4507 574.865 10.477 574.968 10.477C575.179 10.477 575.384 10.3678 575.496 10.1721C577.434 6.81696 580.827 4.49821 584.641 3.89756C584.949 4.69724 585.726 5.26596 586.632 5.26596C587.808 5.26596 588.765 4.30916 588.765 3.13298C588.765 1.95681 587.808 1 586.632 1C585.612 1 584.757 1.72023 584.548 2.67876C582.534 2.9813 580.584 3.72678 578.885 4.84724C577.066 6.04587 575.53 7.67626 574.441 9.56224C574.272 9.8539 574.372 10.2265 574.664 10.3947L574.664 10.3952ZM586.633 2.21896C587.137 2.21896 587.547 2.62902 587.547 3.13309C587.547 3.63716 587.137 4.04722 586.633 4.04722C586.128 4.04722 585.718 3.63716 585.718 3.13309C585.718 2.62902 586.128 2.21896 586.633 2.21896Z" fill="#2C7B98" stroke="#2C7B98" stroke-width="1.5"/>
<path d="M580.203 27.7375C576.848 25.8004 574.528 22.407 573.929 18.5929C574.728 18.2849 575.297 17.5083 575.297 16.6016C575.297 15.4254 574.341 14.4686 573.164 14.4686C571.988 14.4686 571.031 15.4254 571.031 16.6016C571.031 17.6219 571.752 18.4773 572.71 18.6858C573.013 20.6996 573.758 22.6495 574.879 24.3491C576.077 26.1674 577.708 27.704 579.594 28.7929C579.69 28.8484 579.794 28.8748 579.898 28.8748C580.108 28.8748 580.313 28.7655 580.426 28.5699C580.594 28.2784 580.494 27.9058 580.203 27.7374L580.203 27.7375ZM572.25 16.6015C572.25 16.0974 572.66 15.6874 573.164 15.6874C573.668 15.6874 574.078 16.0974 574.078 16.6015C574.078 17.1056 573.668 17.5156 573.164 17.5156C572.66 17.5156 572.25 17.1056 572.25 16.6015Z" fill="#2C7B98" stroke="#2C7B98" stroke-width="1.5"/>
<path d="M598.601 22.8083C598.309 22.64 597.936 22.7399 597.768 23.0314C595.831 26.3867 592.438 28.7058 588.624 29.3059C588.316 28.5064 587.539 27.9375 586.632 27.9375C585.456 27.9375 584.499 28.8943 584.499 30.0705C584.499 31.2466 585.456 32.2035 586.632 32.2035C587.653 32.2035 588.508 31.4832 588.717 30.5247C590.731 30.2222 592.681 29.4767 594.38 28.3562C596.198 27.1576 597.735 25.5272 598.824 23.6412C598.992 23.3498 598.892 22.9769 598.601 22.8087L598.601 22.8083ZM586.632 30.9845C586.128 30.9845 585.718 30.5744 585.718 30.0704C585.718 29.5663 586.128 29.1562 586.632 29.1562C587.136 29.1562 587.546 29.5663 587.546 30.0704C587.546 30.5744 587.136 30.9845 586.632 30.9845Z" fill="#2C7B98" stroke="#2C7B98" stroke-width="1.5"/>
<path d="M600.555 14.5172C600.252 12.5034 599.507 10.5535 598.387 8.8539C597.188 7.03562 595.558 5.499 593.672 4.41008C593.38 4.24184 593.007 4.34174 592.839 4.63318C592.671 4.92461 592.771 5.29724 593.062 5.46567C596.417 7.4028 598.737 10.7962 599.337 14.6103C598.537 14.9183 597.968 15.6949 597.968 16.6016C597.968 17.7778 598.925 18.7346 600.101 18.7346C601.277 18.7346 602.234 17.7778 602.234 16.6016C602.234 15.5813 601.514 14.7259 600.555 14.5171L600.555 14.5172ZM600.101 17.5155C599.597 17.5155 599.187 17.1055 599.187 16.6014C599.187 16.0973 599.597 15.6873 600.101 15.6873C600.605 15.6873 601.015 16.0973 601.015 16.6014C601.015 17.1055 600.605 17.5155 600.101 17.5155Z" fill="#2C7B98" stroke="#2C7B98" stroke-width="1.5"/>
<path d="M621.311 21.4673H618.928V10.0454H625.475V12.0298H621.311V14.9751H625.186V16.9517H621.311V21.4673ZM631.1 12.5532C632.272 12.5532 633.17 12.8084 633.795 13.3188C634.42 13.8293 634.733 14.6053 634.733 15.647V21.4673H633.068L632.608 20.2798H632.545C632.295 20.5923 632.04 20.8475 631.779 21.0454C631.519 21.2433 631.22 21.3892 630.881 21.4829C630.542 21.5767 630.131 21.6235 629.647 21.6235C629.131 21.6235 628.667 21.5246 628.256 21.3267C627.85 21.1287 627.529 20.8267 627.295 20.4204C627.061 20.009 626.943 19.4881 626.943 18.8579C626.943 17.9308 627.269 17.2485 627.92 16.811C628.571 16.3683 629.548 16.1235 630.85 16.0767L632.365 16.0298V15.647C632.365 15.1886 632.246 14.8527 632.006 14.6392C631.766 14.4256 631.433 14.3188 631.006 14.3188C630.584 14.3188 630.17 14.3787 629.764 14.4985C629.358 14.6183 628.951 14.7694 628.545 14.9517L627.756 13.3423C628.22 13.0975 628.738 12.9048 629.311 12.7642C629.889 12.6235 630.485 12.5532 631.1 12.5532ZM632.365 17.4204L631.443 17.4517C630.673 17.4725 630.136 17.6105 629.834 17.8657C629.537 18.1209 629.389 18.4569 629.389 18.8735C629.389 19.2381 629.496 19.4985 629.709 19.6548C629.923 19.8058 630.201 19.8813 630.545 19.8813C631.055 19.8813 631.485 19.7303 631.834 19.4282C632.188 19.1261 632.365 18.6965 632.365 18.1392V17.4204ZM643.287 18.8735C643.287 19.4673 643.147 19.9699 642.865 20.3813C642.589 20.7876 642.175 21.0975 641.623 21.311C641.071 21.5194 640.384 21.6235 639.561 21.6235C638.951 21.6235 638.428 21.5845 637.99 21.5063C637.558 21.4282 637.121 21.298 636.678 21.1157V19.147C637.152 19.3605 637.66 19.5376 638.201 19.6782C638.748 19.8136 639.227 19.8813 639.639 19.8813C640.102 19.8813 640.433 19.8136 640.631 19.6782C640.834 19.5376 640.936 19.3553 640.936 19.1313C640.936 18.9855 640.894 18.8553 640.811 18.7407C640.733 18.6209 640.561 18.4881 640.295 18.3423C640.029 18.1912 639.613 17.9959 639.045 17.7563C638.498 17.5272 638.048 17.2954 637.693 17.061C637.345 16.8267 637.084 16.5506 636.912 16.2329C636.746 15.91 636.662 15.5011 636.662 15.0063C636.662 14.1991 636.975 13.5923 637.6 13.186C638.23 12.7746 639.071 12.5688 640.123 12.5688C640.665 12.5688 641.18 12.6235 641.67 12.7329C642.165 12.8423 642.673 13.0168 643.193 13.2563L642.475 14.9751C642.042 14.7876 641.634 14.634 641.248 14.5142C640.868 14.3944 640.48 14.3345 640.084 14.3345C639.735 14.3345 639.472 14.3813 639.295 14.4751C639.118 14.5688 639.029 14.7121 639.029 14.9048C639.029 15.0454 639.074 15.1704 639.162 15.2798C639.256 15.3892 639.433 15.5116 639.693 15.647C639.959 15.7772 640.347 15.9465 640.858 16.1548C641.352 16.3579 641.782 16.5715 642.147 16.7954C642.511 17.0142 642.792 17.2876 642.99 17.6157C643.188 17.9386 643.287 18.3579 643.287 18.8735ZM647.529 9.31104V11.7876C647.529 12.2199 647.514 12.6313 647.483 13.022C647.457 13.4126 647.436 13.6886 647.42 13.8501H647.545C647.733 13.548 647.954 13.3032 648.209 13.1157C648.47 12.9282 648.756 12.7902 649.068 12.7017C649.381 12.6131 649.717 12.5688 650.076 12.5688C650.707 12.5688 651.256 12.6808 651.725 12.9048C652.193 13.1235 652.558 13.4699 652.818 13.9438C653.079 14.4126 653.209 15.022 653.209 15.772V21.4673H650.826V16.3657C650.826 15.7407 650.712 15.2694 650.483 14.9517C650.253 14.634 649.899 14.4751 649.42 14.4751C648.941 14.4751 648.563 14.5871 648.287 14.811C648.011 15.0298 647.816 15.3553 647.701 15.7876C647.587 16.2147 647.529 16.7381 647.529 17.3579V21.4673H645.147V9.31104H647.529ZM658.045 12.7329V21.4673H655.662V12.7329H658.045ZM656.858 9.31104C657.212 9.31104 657.516 9.39437 657.772 9.56104C658.027 9.72249 658.154 10.0272 658.154 10.4751C658.154 10.9178 658.027 11.2251 657.772 11.397C657.516 11.5636 657.212 11.647 656.858 11.647C656.498 11.647 656.191 11.5636 655.936 11.397C655.686 11.2251 655.561 10.9178 655.561 10.4751C655.561 10.0272 655.686 9.72249 655.936 9.56104C656.191 9.39437 656.498 9.31104 656.858 9.31104ZM668.49 17.0845C668.49 17.8136 668.391 18.4595 668.193 19.022C668.001 19.5845 667.717 20.061 667.342 20.4517C666.972 20.8371 666.524 21.1287 665.998 21.3267C665.477 21.5246 664.889 21.6235 664.233 21.6235C663.618 21.6235 663.053 21.5246 662.537 21.3267C662.027 21.1287 661.582 20.8371 661.201 20.4517C660.826 20.061 660.535 19.5845 660.326 19.022C660.123 18.4595 660.022 17.8136 660.022 17.0845C660.022 16.1157 660.193 15.2954 660.537 14.6235C660.881 13.9517 661.371 13.4412 662.006 13.0923C662.641 12.7433 663.399 12.5688 664.279 12.5688C665.097 12.5688 665.821 12.7433 666.451 13.0923C667.087 13.4412 667.584 13.9517 667.943 14.6235C668.308 15.2954 668.49 16.1157 668.49 17.0845ZM662.451 17.0845C662.451 17.6574 662.514 18.1392 662.639 18.5298C662.764 18.9204 662.959 19.2147 663.225 19.4126C663.49 19.6105 663.837 19.7095 664.264 19.7095C664.686 19.7095 665.027 19.6105 665.287 19.4126C665.553 19.2147 665.746 18.9204 665.865 18.5298C665.99 18.1392 666.053 17.6574 666.053 17.0845C666.053 16.5063 665.99 16.0272 665.865 15.647C665.746 15.2616 665.553 14.9725 665.287 14.7798C665.022 14.5871 664.675 14.4907 664.248 14.4907C663.618 14.4907 663.16 14.7069 662.873 15.1392C662.592 15.5715 662.451 16.2199 662.451 17.0845ZM675.42 12.5688C676.352 12.5688 677.102 12.8241 677.67 13.3345C678.238 13.8397 678.522 14.6522 678.522 15.772V21.4673H676.139V16.3657C676.139 15.7407 676.024 15.2694 675.795 14.9517C675.571 14.634 675.217 14.4751 674.733 14.4751C674.003 14.4751 673.506 14.7225 673.24 15.2173C672.975 15.7121 672.842 16.4256 672.842 17.3579V21.4673H670.459V12.7329H672.279L672.6 13.8501H672.733C672.92 13.548 673.152 13.3032 673.428 13.1157C673.709 12.9282 674.019 12.7902 674.358 12.7017C674.701 12.6131 675.055 12.5688 675.42 12.5688ZM683.545 21.4673H681.162V10.0454H687.709V12.0298H683.545V14.9751H687.42V16.9517H683.545V21.4673ZM697.693 17.0845C697.693 17.8136 697.595 18.4595 697.397 19.022C697.204 19.5845 696.92 20.061 696.545 20.4517C696.175 20.8371 695.727 21.1287 695.201 21.3267C694.68 21.5246 694.092 21.6235 693.436 21.6235C692.821 21.6235 692.256 21.5246 691.74 21.3267C691.23 21.1287 690.785 20.8371 690.404 20.4517C690.029 20.061 689.738 19.5845 689.529 19.022C689.326 18.4595 689.225 17.8136 689.225 17.0845C689.225 16.1157 689.397 15.2954 689.74 14.6235C690.084 13.9517 690.574 13.4412 691.209 13.0923C691.845 12.7433 692.602 12.5688 693.483 12.5688C694.3 12.5688 695.024 12.7433 695.654 13.0923C696.29 13.4412 696.787 13.9517 697.147 14.6235C697.511 15.2954 697.693 16.1157 697.693 17.0845ZM691.654 17.0845C691.654 17.6574 691.717 18.1392 691.842 18.5298C691.967 18.9204 692.162 19.2147 692.428 19.4126C692.693 19.6105 693.04 19.7095 693.467 19.7095C693.889 19.7095 694.23 19.6105 694.49 19.4126C694.756 19.2147 694.949 18.9204 695.068 18.5298C695.193 18.1392 695.256 17.6574 695.256 17.0845C695.256 16.5063 695.193 16.0272 695.068 15.647C694.949 15.2616 694.756 14.9725 694.49 14.7798C694.225 14.5871 693.878 14.4907 693.451 14.4907C692.821 14.4907 692.363 14.7069 692.076 15.1392C691.795 15.5715 691.654 16.2199 691.654 17.0845ZM704.537 12.5688C704.657 12.5688 704.795 12.5767 704.951 12.5923C705.113 12.6027 705.243 12.6183 705.342 12.6392L705.162 14.8735C705.084 14.8475 704.972 14.8293 704.826 14.8188C704.686 14.8032 704.563 14.7954 704.459 14.7954C704.152 14.7954 703.852 14.8345 703.561 14.9126C703.274 14.9907 703.016 15.1183 702.787 15.2954C702.558 15.4673 702.376 15.6965 702.24 15.9829C702.11 16.2642 702.045 16.6105 702.045 17.022V21.4673H699.662V12.7329H701.467L701.818 14.2017H701.936C702.108 13.9048 702.321 13.634 702.576 13.3892C702.837 13.1392 703.131 12.9412 703.459 12.7954C703.792 12.6444 704.152 12.5688 704.537 12.5688ZM714.108 21.4673L713.279 18.7485H709.115L708.287 21.4673H705.678L709.709 9.99854H712.67L716.717 21.4673H714.108ZM712.701 16.7173L711.873 14.061C711.821 13.884 711.751 13.6574 711.662 13.3813C711.579 13.1001 711.493 12.8162 711.404 12.5298C711.321 12.2381 711.253 11.9855 711.201 11.772C711.149 11.9855 711.076 12.2511 710.983 12.5688C710.894 12.8813 710.808 13.1782 710.725 13.4595C710.641 13.7407 710.582 13.9412 710.545 14.061L709.725 16.7173H712.701ZM720.358 21.4673H717.975V9.31104H720.358V21.4673ZM725.248 21.4673H722.865V9.31104H725.248V21.4673Z" fill="#2C7B98"/>
<path d="M780.774 6.39697L780.88 11.9563L786.934 11.8407C788.581 11.8092 790.089 10.9158 790.906 9.48866L792.806 6.16706L780.774 6.39697Z" fill="#710051"/>
<path d="M800.451 27.3861L800.344 21.8267L784.398 22.1314L781.182 27.7543L800.451 27.3861Z" fill="#6C0E63"/>
<path d="M792.653 18.8433L800.025 6.0291L793.538 6.15306L784.722 21.4834L788.305 21.4149C790.106 21.3805 791.758 20.404 792.653 18.8433Z" fill="#BAAA1D"/>
<path d="M820.053 16.7228C820.053 17.5717 819.952 18.3504 819.748 19.0587C819.55 19.7618 819.243 20.3712 818.827 20.8868C818.41 21.4025 817.881 21.8061 817.241 22.0978L819.991 25.1681H816.889L814.795 22.6056C814.759 22.6056 814.728 22.6056 814.702 22.6056C814.675 22.6056 814.647 22.6056 814.616 22.6056C813.683 22.6056 812.876 22.4676 812.194 22.1915C811.511 21.9103 810.946 21.5092 810.498 20.9884C810.056 20.4676 809.725 19.8452 809.506 19.1212C809.287 18.3973 809.178 17.5926 809.178 16.7072C809.178 15.5249 809.371 14.4962 809.756 13.6212C810.147 12.741 810.746 12.0587 811.553 11.5743C812.36 11.09 813.386 10.8478 814.631 10.8478C815.871 10.8478 816.889 11.09 817.686 11.5743C818.488 12.0587 819.082 12.741 819.467 13.6212C819.858 14.5014 820.053 15.5353 820.053 16.7228ZM811.717 16.7228C811.717 17.5197 811.816 18.2072 812.014 18.7853C812.217 19.3582 812.532 19.8009 812.959 20.1134C813.386 20.4207 813.939 20.5743 814.616 20.5743C815.303 20.5743 815.86 20.4207 816.287 20.1134C816.715 19.8009 817.024 19.3582 817.217 18.7853C817.415 18.2072 817.514 17.5197 817.514 16.7228C817.514 15.5249 817.29 14.5822 816.842 13.8947C816.394 13.2072 815.657 12.8634 814.631 12.8634C813.949 12.8634 813.392 13.0197 812.959 13.3322C812.532 13.6394 812.217 14.0822 812.014 14.6603C811.816 15.2332 811.717 15.9207 811.717 16.7228ZM830.248 13.715V22.4493H828.42L828.1 21.3322H827.975C827.787 21.629 827.553 21.8712 827.272 22.0587C826.991 22.2462 826.681 22.3842 826.342 22.4728C826.004 22.5613 825.652 22.6056 825.287 22.6056C824.662 22.6056 824.118 22.4962 823.655 22.2775C823.191 22.0535 822.829 21.7072 822.569 21.2384C822.314 20.7697 822.186 20.1603 822.186 19.4103V13.715H824.569V18.8165C824.569 19.4415 824.681 19.9129 824.905 20.2306C825.129 20.5483 825.485 20.7072 825.975 20.7072C826.459 20.7072 826.84 20.5978 827.116 20.379C827.392 20.1551 827.584 19.8295 827.694 19.4025C827.808 18.9702 827.866 18.4441 827.866 17.8243V13.715H830.248ZM836.35 13.5509C837.157 13.5509 837.853 13.7072 838.436 14.0197C839.019 14.3269 839.47 14.7749 839.787 15.3634C840.105 15.9519 840.264 16.6707 840.264 17.5197V18.6759H834.631C834.657 19.3478 834.858 19.8764 835.233 20.2618C835.613 20.642 836.139 20.8322 836.811 20.8322C837.368 20.8322 837.879 20.7749 838.342 20.6603C838.806 20.5457 839.282 20.3738 839.772 20.1447V21.9884C839.34 22.2019 838.886 22.3582 838.412 22.4572C837.944 22.5561 837.373 22.6056 836.702 22.6056C835.827 22.6056 835.05 22.4441 834.373 22.1212C833.702 21.7983 833.173 21.3061 832.787 20.6447C832.407 19.9832 832.217 19.1499 832.217 18.1447C832.217 17.1238 832.389 16.2749 832.733 15.5978C833.082 14.9155 833.566 14.4051 834.186 14.0665C834.806 13.7228 835.527 13.5509 836.35 13.5509ZM836.366 15.2462C835.902 15.2462 835.517 15.3947 835.209 15.6915C834.907 15.9884 834.733 16.4545 834.686 17.09H838.03C838.024 16.7358 837.959 16.4207 837.834 16.1447C837.715 15.8686 837.532 15.6499 837.287 15.4884C837.048 15.3269 836.741 15.2462 836.366 15.2462ZM845.803 13.5509C846.61 13.5509 847.306 13.7072 847.889 14.0197C848.472 14.3269 848.923 14.7749 849.241 15.3634C849.558 15.9519 849.717 16.6707 849.717 17.5197V18.6759H844.084C844.11 19.3478 844.311 19.8764 844.686 20.2618C845.066 20.642 845.592 20.8322 846.264 20.8322C846.821 20.8322 847.332 20.7749 847.795 20.6603C848.259 20.5457 848.735 20.3738 849.225 20.1447V21.9884C848.793 22.2019 848.34 22.3582 847.866 22.4572C847.397 22.5561 846.827 22.6056 846.155 22.6056C845.28 22.6056 844.504 22.4441 843.827 22.1212C843.155 21.7983 842.626 21.3061 842.241 20.6447C841.86 19.9832 841.67 19.1499 841.67 18.1447C841.67 17.1238 841.842 16.2749 842.186 15.5978C842.535 14.9155 843.019 14.4051 843.639 14.0665C844.259 13.7228 844.98 13.5509 845.803 13.5509ZM845.819 15.2462C845.355 15.2462 844.97 15.3947 844.662 15.6915C844.36 15.9884 844.186 16.4545 844.139 17.09H847.483C847.478 16.7358 847.412 16.4207 847.287 16.1447C847.168 15.8686 846.985 15.6499 846.741 15.4884C846.501 15.3269 846.194 15.2462 845.819 15.2462ZM856.616 13.5509C857.548 13.5509 858.298 13.8061 858.866 14.3165C859.433 14.8217 859.717 15.6342 859.717 16.754V22.4493H857.334V17.3478C857.334 16.7228 857.22 16.2514 856.991 15.9337C856.767 15.616 856.412 15.4572 855.928 15.4572C855.199 15.4572 854.702 15.7045 854.436 16.1993C854.17 16.6941 854.037 17.4077 854.037 18.34V22.4493H851.655V13.715H853.475L853.795 14.8322H853.928C854.116 14.5301 854.347 14.2853 854.623 14.0978C854.905 13.9103 855.215 13.7723 855.553 13.6837C855.897 13.5952 856.251 13.5509 856.616 13.5509ZM869.873 22.6056C869.009 22.6056 868.272 22.4493 867.662 22.1368C867.053 21.8191 866.59 21.3295 866.272 20.6681C865.954 20.0066 865.795 19.1603 865.795 18.129C865.795 17.0613 865.975 16.1915 866.334 15.5197C866.699 14.8426 867.202 14.3452 867.842 14.0275C868.488 13.7098 869.235 13.5509 870.084 13.5509C870.689 13.5509 871.209 13.6108 871.647 13.7306C872.09 13.8452 872.475 13.9832 872.803 14.1447L872.1 15.9884C871.725 15.8374 871.376 15.715 871.053 15.6212C870.73 15.5223 870.407 15.4728 870.084 15.4728C869.668 15.4728 869.321 15.5717 869.045 15.7697C868.769 15.9624 868.564 16.254 868.428 16.6447C868.293 17.0353 868.225 17.5249 868.225 18.1134C868.225 18.6915 868.298 19.1707 868.444 19.5509C868.59 19.9311 868.8 20.215 869.077 20.4025C869.353 20.5848 869.689 20.6759 870.084 20.6759C870.579 20.6759 871.019 20.6108 871.405 20.4806C871.79 20.3452 872.165 20.1577 872.53 19.9181V21.9572C872.165 22.1863 871.782 22.3504 871.381 22.4493C870.985 22.5535 870.483 22.6056 869.873 22.6056ZM876.944 22.4493H874.561V10.2931H876.944V22.4493ZM887.389 18.0665C887.389 18.7957 887.29 19.4415 887.092 20.004C886.899 20.5665 886.616 21.0431 886.241 21.4337C885.871 21.8191 885.423 22.1108 884.897 22.3087C884.376 22.5066 883.787 22.6056 883.131 22.6056C882.517 22.6056 881.952 22.5066 881.436 22.3087C880.925 22.1108 880.48 21.8191 880.1 21.4337C879.725 21.0431 879.433 20.5665 879.225 20.004C879.022 19.4415 878.92 18.7957 878.92 18.0665C878.92 17.0978 879.092 16.2775 879.436 15.6056C879.78 14.9337 880.269 14.4233 880.905 14.0743C881.54 13.7254 882.298 13.5509 883.178 13.5509C883.996 13.5509 884.72 13.7254 885.35 14.0743C885.985 14.4233 886.483 14.9337 886.842 15.6056C887.207 16.2775 887.389 17.0978 887.389 18.0665ZM881.35 18.0665C881.35 18.6394 881.412 19.1212 881.537 19.5118C881.662 19.9025 881.858 20.1967 882.123 20.3947C882.389 20.5926 882.735 20.6915 883.162 20.6915C883.584 20.6915 883.925 20.5926 884.186 20.3947C884.452 20.1967 884.644 19.9025 884.764 19.5118C884.889 19.1212 884.952 18.6394 884.952 18.0665C884.952 17.4884 884.889 17.0092 884.764 16.629C884.644 16.2436 884.452 15.9545 884.186 15.7618C883.92 15.5691 883.574 15.4728 883.147 15.4728C882.517 15.4728 882.058 15.6889 881.772 16.1212C881.491 16.5535 881.35 17.2019 881.35 18.0665ZM895.436 22.4493H888.537V21.0431L892.584 15.5353H888.78V13.715H895.295V15.2618L891.358 20.629H895.436V22.4493ZM900.772 13.5509C901.579 13.5509 902.274 13.7072 902.858 14.0197C903.441 14.3269 903.892 14.7749 904.209 15.3634C904.527 15.9519 904.686 16.6707 904.686 17.5197V18.6759H899.053C899.079 19.3478 899.28 19.8764 899.655 20.2618C900.035 20.642 900.561 20.8322 901.233 20.8322C901.79 20.8322 902.3 20.7749 902.764 20.6603C903.228 20.5457 903.704 20.3738 904.194 20.1447V21.9884C903.761 22.2019 903.308 22.3582 902.834 22.4572C902.366 22.5561 901.795 22.6056 901.123 22.6056C900.248 22.6056 899.472 22.4441 898.795 22.1212C898.123 21.7983 897.595 21.3061 897.209 20.6447C896.829 19.9832 896.639 19.1499 896.639 18.1447C896.639 17.1238 896.811 16.2749 897.155 15.5978C897.504 14.9155 897.988 14.4051 898.608 14.0665C899.228 13.7228 899.949 13.5509 900.772 13.5509ZM900.787 15.2462C900.324 15.2462 899.939 15.3947 899.631 15.6915C899.329 15.9884 899.155 16.4545 899.108 17.09H902.452C902.446 16.7358 902.381 16.4207 902.256 16.1447C902.136 15.8686 901.954 15.6499 901.709 15.4884C901.47 15.3269 901.162 15.2462 900.787 15.2462ZM910.303 20.7072C910.564 20.7072 910.816 20.6811 911.061 20.629C911.311 20.5769 911.558 20.5118 911.803 20.4337V22.2072C911.548 22.3217 911.23 22.4155 910.85 22.4884C910.475 22.5665 910.064 22.6056 909.616 22.6056C909.095 22.6056 908.626 22.5223 908.209 22.3556C907.798 22.1837 907.472 21.8894 907.233 21.4728C906.998 21.0509 906.881 20.465 906.881 19.715V15.504H905.741V14.4962L907.053 13.6993L907.741 11.8556H909.264V13.715H911.709V15.504H909.264V19.715C909.264 20.0483 909.358 20.2983 909.545 20.465C909.738 20.6264 909.991 20.7072 910.303 20.7072Z" fill="#BAAA1D"/>
</svg>
